<svg width="32" height="27" viewBox="0 0 32 27" fill="none" xmlns="http://www.w3.org/2000/svg">
<path d="M31.8577 3.16879C30.8226 3.61427 29.7343 3.92447 28.6199 4.09174C29.1409 4.00242 29.9076 3.06458 30.2127 2.68498C30.6764 2.11238 31.0297 1.45872 31.2548 0.757196C31.2548 0.705094 31.3069 0.630662 31.2548 0.593446C31.2285 0.579114 31.1991 0.571603 31.1692 0.571603C31.1393 0.571603 31.1098 0.579114 31.0836 0.593446C29.8735 1.24876 28.5856 1.74891 27.2503 2.08208C27.2038 2.0963 27.1543 2.09757 27.1071 2.08577C27.0599 2.07397 27.0168 2.04954 26.9824 2.01509C26.8785 1.89133 26.7666 1.77448 26.6475 1.66526C26.1029 1.17733 25.485 0.777969 24.8164 0.481798C23.914 0.111558 22.9392 -0.0487854 21.9657 0.0128782C21.0211 0.0725336 20.0989 0.325892 19.2564 0.757196C18.4267 1.21192 17.6976 1.82967 17.1127 2.57333C16.4975 3.33875 16.0534 4.22704 15.8102 5.17844C15.6096 6.08342 15.5869 7.01876 15.7432 7.93242C15.7432 8.08873 15.7432 8.11106 15.6092 8.08873C10.3022 7.30719 5.94797 5.42407 2.39013 1.38242C2.23383 1.20379 2.15195 1.20379 2.02542 1.38242C0.477237 3.73447 1.229 7.45606 3.16422 9.29452C3.42474 9.54015 3.69269 9.77833 3.97553 10.0016C3.08824 9.93863 2.22262 9.69818 1.42996 9.29452C1.2811 9.19776 1.19923 9.24986 1.19178 9.4285C1.17068 9.67616 1.17068 9.92516 1.19178 10.1728C1.34709 11.3597 1.81483 12.484 2.54719 13.4309C3.27954 14.3777 4.25022 15.113 5.35996 15.5617C5.63049 15.6776 5.91238 15.7649 6.20104 15.8222C5.37963 15.9839 4.53717 16.0091 3.70758 15.8966C3.52894 15.8594 3.46195 15.9562 3.52894 16.1274C4.62309 19.1046 6.99746 20.0127 8.73916 20.5188C8.97735 20.5561 9.21553 20.5561 9.48348 20.6156C9.48348 20.6156 9.48348 20.6156 9.43882 20.6603C8.92524 21.5981 6.8486 22.2308 5.89587 22.5583C4.1569 23.1829 2.30283 23.4216 0.462351 23.2579C0.172067 23.2133 0.105078 23.2207 0.0306465 23.2579C-0.0437853 23.2951 0.0306465 23.377 0.112521 23.4514C0.48468 23.6971 0.856839 23.9129 1.24388 24.1213C2.39612 24.7498 3.61427 25.249 4.87616 25.61C11.4113 27.4112 18.7651 26.0863 23.6702 21.2111C27.5257 17.3853 28.8804 12.108 28.8804 6.82339C28.8804 6.62242 29.126 6.50333 29.2675 6.39913C30.2429 5.6391 31.1029 4.74152 31.8205 3.73447C31.9447 3.58435 32.0085 3.39322 31.9991 3.19856V3.19856C31.9991 3.08691 31.9991 3.10924 31.8577 3.16879Z" fill="#289FED"/>
<path d="M14.4481 13.1453C13.9083 13.6253 13.5229 14.2545 13.3407 14.9535C13.1585 15.6525 13.1876 16.3898 13.4245 17.0722C13.6613 17.7546 14.0952 18.3514 14.6712 18.7873C15.2472 19.2231 15.9396 19.4783 16.6607 19.5207C17.3818 19.563 18.0992 19.3906 18.7223 19.0252C19.3454 18.6598 19.8461 18.1178 20.1612 17.4678C20.4763 16.8178 20.5915 16.089 20.4924 15.3735C20.3933 14.658 20.0842 13.988 19.6042 13.4481C18.923 12.6876 17.9741 12.22 16.956 12.1429L15.6612 12.0668" stroke="#BEE5FF" stroke-width="0.8" stroke-linecap="round" stroke-linejoin="round"/>
<path d="M17.1776 10.7187L15.6612 12.0668L17.0094 13.5832" stroke="#BEE5FF" stroke-width="0.8" stroke-linecap="round" stroke-linejoin="round"/>
</svg>
